HIERARCHY
ROOT Hips
{
	OFFSET 0.000000 0.000000 0.000000
	CHANNELS 6 Xposition Yposition Zposition Zrotation Yrotation Xrotation 
	JOINT LowerBack
	{
		OFFSET 0.000000 0.000000 0.000000
		CHANNELS 3 Zrotation Yrotation Xrotation
		JOINT Spine
		{
			OFFSET 0.028270 2.035590 -0.193380
			CHANNELS 3 Zrotation Yrotation Xrotation
			JOINT Spine1
			{
				OFFSET 0.056720 2.048850 -0.042750
				CHANNELS 3 Zrotation Yrotation Xrotation
				JOINT Neck
				{
					OFFSET 0.000000 0.000000 0.000000
					CHANNELS 3 Zrotation Yrotation Xrotation
					JOINT Neck1
					{
						OFFSET -0.054170 1.746240 0.172020
						CHANNELS 3 Zrotation Yrotation Xrotation
						JOINT Head
						{
							OFFSET 0.104070 1.761360 -0.123970
							CHANNELS 3 Zrotation Yrotation Xrotation
							End Site
							{
								OFFSET 0.000000 0.000000 0.000000
							}
						}
					}
				}
				JOINT LeftShoulder
				{
					OFFSET 0.000000 0.000000 0.000000
					CHANNELS 3 Zrotation Yrotation Xrotation
					JOINT LeftArm
					{
						OFFSET 3.362410 1.200890 -0.311210
						CHANNELS 3 Zrotation Yrotation Xrotation
						JOINT LeftForeArm
						{
							OFFSET 4.983000 -0.000000 -0.000000
							CHANNELS 3 Zrotation Yrotation Xrotation
							JOINT LeftHand
							{
								OFFSET 3.483560 -0.000000 -0.000000
								CHANNELS 3 Zrotation Yrotation Xrotation
								JOINT LeftFingerBase
								{
									OFFSET 0.000000 0.000000 0.000000
									CHANNELS 3 Zrotation Yrotation Xrotation
									JOINT LeftHandIndex1
									{
										OFFSET 0.715260 -0.000000 -0.000000
										CHANNELS 3 Zrotation Yrotation Xrotation
										End Site
										{
											OFFSET 0.000000 0.000000 0.000000
										}
									}
								}
								JOINT LThumb
								{
									OFFSET 0.000000 0.000000 0.000000
									CHANNELS 3 Zrotation Yrotation Xrotation
									End Site
									{
										OFFSET 0.000000 0.000000 0.000000
									}
								}
							}
						}
					}
				}
				JOINT RightShoulder
				{
					OFFSET 0.000000 0.000000 0.000000
					CHANNELS 3 Zrotation Yrotation Xrotation
					JOINT RightArm
					{
						OFFSET -3.136600 1.374050 -0.404650
						CHANNELS 3 Zrotation Yrotation Xrotation
						JOINT RightForeArm
						{
							OFFSET -5.241900 -0.000000 -0.000000
							CHANNELS 3 Zrotation Yrotation Xrotation
							JOINT RightHand
							{
								OFFSET -3.444170 -0.000000 -0.000000
								CHANNELS 3 Zrotation Yrotation Xrotation
								JOINT RightFingerBase
								{
									OFFSET 0.000000 0.000000 0.000000
									CHANNELS 3 Zrotation Yrotation Xrotation
									JOINT RightHandIndex1
									{
										OFFSET -0.622530 -0.000000 -0.000000
										CHANNELS 3 Zrotation Yrotation Xrotation
										End Site
										{
											OFFSET 0.000000 0.000000 0.000000
										}
									}
								}
								JOINT RThumb
								{
									OFFSET 0.000000 0.000000 0.000000
									CHANNELS 3 Zrotation Yrotation Xrotation
									End Site
									{
										OFFSET 0.000000 0.000000 0.000000
									}
								}
							}
						}
					}
				}
			}
		}
	}
}
}
MOTION
Frames: 14
Frame Time: 0.008333
-0.688122 17.019859 1.298029 41.316670 86.356094 38.840662 -1.755259 0.098520 -1.531106 -0.840178 0.172399 -2.582083 -4.843671 0.135625 2.691034 6.394979 -12.096397 -7.838625 -1.977337 -0.152476 -0.048765 0.000000 0.000000 0.000000 -2.262664 25.155455 0.433405 -74.023979 21.837613 -0.193006 -3.968032 -24.949470 -0.014408 -4.040770 4.291807 -0.151066 -0.100823 -0.098627 -0.000000 0.000000 0.000000 0.000000 0.000000 0.000000 0.000000 8.459478 -7.151973 -1.358903 60.581455 12.433279 14.274322 2.380604 40.625641 0.013313 4.580470 6.079462 0.246869 0.030706 -0.112507 0.000000 0.000000 0.000000 0.000000 0.000000 0.000000 0.000000 
-0.535367 17.004205 1.286600 42.671628 86.411383 40.139620 -2.018188 0.063279 -1.572554 -0.904211 0.152325 -2.589761 -4.895928 0.116916 2.693502 6.484573 -12.130806 -7.848112 -1.998659 -0.154091 -0.052018 0.000000 0.000000 0.000000 -2.299732 25.248339 0.407097 -73.929108 21.772518 -0.013062 -3.965242 -25.044272 -0.014439 -4.094145 4.280987 -0.152868 -0.099698 -0.099147 -0.000000 0.000000 0.000000 0.000000 0.000000 0.000000 0.000000 8.673092 -7.192169 -1.369105 60.751855 12.012632 14.362975 2.404623 40.408754 0.013352 4.679965 6.112005 0.253468 0.030907 -0.110161 0.000000 0.000000 0.000000 0.000000 0.000000 0.000000 0.000000 
-0.382164 16.991009 1.275716 44.284843 86.449089 41.706409 -2.297800 0.025206 -1.626246 -0.972071 0.130101 -2.599065 -4.948735 0.096019 2.699446 6.563856 -12.152993 -7.850105 -2.021922 -0.155957 -0.053526 0.000000 0.000000 0.000000 -2.344535 25.346928 0.378952 -73.801279 21.639857 0.112990 -3.966733 -25.072211 -0.014456 -4.136691 4.269780 -0.154072 -0.098843 -0.099455 -0.000000 0.000000 0.000000 0.000000 0.000000 0.000000 0.000000 8.880137 -7.224275 -1.384453 60.982784 11.570445 14.365356 2.435301 40.105966 0.013408 4.784502 6.143612 0.260269 0.031350 -0.107648 0.000000 0.000000 0.000000 0.000000 0.000000 0.000000 0.000000 
-0.229352 16.980389 1.265252 46.050624 86.457563 43.433297 -2.593298 -0.011122 -1.685484 -1.043593 0.110549 -2.609390 -5.000623 0.077819 2.706779 6.628441 -12.174618 -7.845850 -2.045852 -0.157957 -0.053597 0.000000 0.000000 0.000000 -2.401867 25.432972 0.348537 -73.648882 21.448205 0.165020 -3.971920 -25.042148 -0.014455 -4.161007 4.263466 -0.154872 -0.098259 -0.099569 -0.000000 0.000000 0.000000 0.000000 0.000000 0.000000 0.000000 9.071519 -7.258841 -1.402139 61.278782 11.124206 14.289623 2.473293 39.702277 0.013492 4.875446 6.182927 0.266771 0.032302 -0.105126 0.000000 0.000000 0.000000 0.000000 0.000000 0.000000 0.000000 
-0.077600 16.972548 1.254899 47.701978 86.434815 45.054289 -2.890840 -0.043178 -1.748749 -1.115549 0.095352 -2.620196 -5.050366 0.063954 2.716410 6.672633 -12.180412 -7.836881 -2.069734 -0.160000 -0.052683 0.000000 0.000000 0.000000 -2.468746 25.520149 0.318900 -73.483923 21.176413 0.133135 -3.981098 -24.932407 -0.014421 -4.160579 4.260871 -0.154773 -0.098029 -0.099365 -0.000000 0.000000 0.000000 0.000000 0.000000 0.000000 0.000000 9.234410 -7.277986 -1.422929 61.645518 10.663410 14.099697 2.518775 39.204480 0.013595 4.962565 6.214504 0.272775 0.033631 -0.102538 0.000000 0.000000 0.000000 0.000000 0.000000 0.000000 0.000000 
0.072423 16.967473 1.244464 49.110350 86.376485 46.439893 -3.187249 -0.068663 -1.810756 -1.186964 0.086807 -2.630957 -5.096847 0.056708 2.726826 6.694224 -12.170743 -7.824971 -2.092734 -0.161993 -0.051220 0.000000 0.000000 0.000000 -2.545128 25.600497 0.291108 -73.315929 20.827965 0.007867 -3.993563 -24.750163 -0.014336 -4.128415 4.262126 -0.153473 -0.098162 -0.098811 -0.000000 0.000000 0.000000 0.000000 0.000000 0.000000 0.000000 9.362093 -7.280807 -1.444700 62.081954 10.195064 13.793728 2.571742 38.612018 0.013723 5.038838 6.238368 0.277879 0.035412 -0.099963 0.000000 0.000000 0.000000 0.000000 0.000000 0.000000 0.000000 
0.220094 16.964971 1.233831 50.171350 86.282598 47.484484 -3.478461 -0.086647 -1.867109 -1.256628 0.085722 -2.641113 -5.139335 0.056861 2.737160 6.692843 -12.141792 -7.812053 -2.114302 -0.163860 -0.049691 0.000000 0.000000 0.000000 -2.627449 25.672264 0.266674 -73.153709 20.403301 -0.211347 -4.008587 -24.500134 -0.014185 -4.058723 4.264382 -0.150870 -0.098663 -0.097859 -0.000000 0.000000 0.000000 0.000000 0.000000 0.000000 0.000000 9.450709 -7.262413 -1.465931 62.583618 9.722351 13.367905 2.631729 37.931848 0.013870 5.103833 6.249794 0.281686 0.037617 -0.097424 0.000000 0.000000 0.000000 0.000000 0.000000 0.000000 0.000000 
0.364937 16.964834 1.222935 50.816125 86.156261 48.118389 -3.759527 -0.097204 -1.914514 -1.323159 0.091781 -2.650274 -5.177434 0.064058 2.746446 6.669807 -12.091786 -7.799753 -2.134156 -0.165554 -0.048473 0.000000 0.000000 0.000000 -2.713551 25.732306 0.246469 -73.002950 19.908537 -0.519313 -4.025179 -24.194648 -0.013958 -3.948970 4.263865 -0.146567 -0.099502 -0.096481 -0.000000 0.000000 0.000000 0.000000 0.000000 0.000000 0.000000 9.499981 -7.220726 -1.484936 63.141505 9.251376 12.830237 2.697966 37.172347 0.014031 5.156816 6.246371 0.284293 0.040207 -0.094934 0.000000 0.000000 0.000000 0.000000 0.000000 0.000000 0.000000 
0.506666 16.966776 1.211725 51.009731 86.005496 48.305936 -4.023504 -0.101969 -1.950205 -1.384830 0.102931 -2.657684 -5.211227 0.076239 2.755373 6.628600 -12.018101 -7.790409 -2.152356 -0.167044 -0.048158 0.000000 0.000000 0.000000 -2.797796 25.786685 0.231553 -72.868611 19.342268 -0.899766 -4.042515 -23.839565 -0.013639 -3.800120 4.253623 -0.140459 -0.100638 -0.094630 -0.000000 0.000000 0.000000 0.000000 0.000000 0.000000 0.000000 9.514297 -7.153355 -1.501020 63.742826 8.787591 12.191944 2.769163 36.349491 0.014185 5.203352 6.219561 0.285400 0.043049 -0.092428 0.000000 0.000000 0.000000 0.000000 0.000000 0.000000 0.000000 
0.645119 16.970541 1.200410 50.808139 85.827406 48.101614 -4.275081 -0.100592 -1.972434 -1.442688 0.119839 -2.664187 -5.241331 0.094015 2.759279 6.573203 -11.924758 -7.781613 -2.169155 -0.168395 -0.047971 0.000000 0.000000 0.000000 -2.881265 25.809164 0.220537 -72.748266 18.742874 -1.338936 -4.058767 -23.476747 -0.013243 -3.615039 4.233623 -0.132752 -0.101940 -0.092441 -0.000000 0.000000 0.000000 0.000000 0.000000 0.000000 0.000000 9.497966 -7.064930 -1.511121 64.376721 8.338437 11.484467 2.844426 35.466892 0.014349 5.235099 6.185831 0.285308 0.046200 -0.090042 0.000000 0.000000 0.000000 0.000000 0.000000 0.000000 0.000000 
0.780376 16.975840 1.188893 50.214509 85.638098 47.506994 -4.502033 -0.097161 -1.980021 -1.494028 0.137583 -2.668539 -5.268131 0.112516 2.761416 6.508505 -11.809753 -7.775651 -2.185009 -0.169601 -0.048544 0.000000 0.000000 0.000000 -2.957196 25.819078 0.214256 -72.642718 18.098436 -1.804482 -4.073763 -23.100570 -0.012768 -3.404378 4.195117 -0.123542 -0.103355 -0.089860 -0.000000 0.000000 0.000000 0.000000 0.000000 0.000000 0.000000 9.460226 -6.955029 -1.516548 65.025114 7.908203 10.728112 2.921800 34.549671 0.014480 5.267094 6.126991 0.284114 0.049395 -0.087567 0.000000 0.000000 0.000000 0.000000 0.000000 0.000000 0.000000 
0.912577 16.982492 1.177356 49.313504 85.440804 46.604566 -4.705805 -0.093525 -1.972312 -1.539381 0.154375 -2.670740 -5.292485 0.129988 2.760915 6.439606 -11.676924 -7.770885 -2.200476 -0.170733 -0.049405 0.000000 0.000000 0.000000 -3.022934 25.809986 0.211576 -72.546847 17.425773 -2.263649 -4.086696 -22.729390 -0.012232 -3.178424 4.136697 -0.113332 -0.104774 -0.086995 -0.000000 0.000000 0.000000 0.000000 0.000000 0.000000 0.000000 9.409923 -6.829074 -1.516935 65.674465 7.500288 9.954119 2.999920 33.611738 0.014569 5.303143 6.046565 0.282118 0.052537 -0.084979 0.000000 0.000000 0.000000 0.000000 0.000000 0.000000 0.000000 
1.041987 16.990391 1.165849 48.177027 85.242283 45.463572 -4.884293 -0.092226 -1.949507 -1.578515 0.167487 -2.670685 -5.315025 0.143750 2.757687 6.370354 -11.530794 -7.765376 -2.216133 -0.171863 -0.050021 0.000000 0.000000 0.000000 -3.077996 25.778940 0.211313 -72.454256 16.737189 -2.684935 -4.097284 -22.375454 -0.011659 -2.950885 4.058566 -0.102819 -0.106106 -0.083943 -0.000000 0.000000 0.000000 0.000000 0.000000 0.000000 0.000000 9.355082 -6.693665 -1.512782 66.311823 7.117569 9.194955 3.077463 32.667866 0.014601 5.349131 5.945518 0.279620 0.055513 -0.082213 0.000000 0.000000 0.000000 0.000000 0.000000 0.000000 0.000000 
1.168976 16.999527 1.154400 46.876739 85.048977 44.153630 -5.036179 -0.095641 -1.912739 -1.611414 0.174393 -2.668320 -5.336339 0.151330 2.752177 6.303783 -11.376997 -7.756990 -2.232553 -0.173067 -0.049823 0.000000 0.000000 0.000000 -3.122834 25.724560 0.212149 -72.357478 16.041736 -3.036609 -4.105626 -22.044569 -0.011077 -2.735788 3.963313 -0.092706 -0.107277 -0.080813 -0.000000 0.000000 0.000000 0.000000 0.000000 0.000000 0.000000 9.303237 -6.556601 -1.505076 66.925581 6.760723 8.478841 3.153378 31.732201 0.014564 5.411556 5.824321 0.276919 0.058220 -0.079200 0.000000 0.000000 0.000000 0.000000 0.000000 0.000000 0.000000 
